/* XPM */
static const char * title_xpm[] = {
"80 25 9  1",
".	c #000000",
"+	c #FF0000",
"@	c #00FF00",
"#	c #FFFF00",
"$	c #0000FF",
"%	c #FF00FF",
"&	c #00FFFF",
"*	c #FFFFFF",
"=	c #007F00",
"$$$$$$$$$$$$$$$$$$$$$$$$$$$$$$$$$$$$$$$$$$$$$$$$$$$$$$$$$$$$$$$$$$$$$$$$$$$$$$$$",
"$$$$$$$$$$$$$$$$$$$$$$$$$$$$$$$$$$$$$$$$$$$$$$.$$$$..$$$$$$$$$$$$$$$$$$$$$$$$$$$",
"$$$$$$$$$$$$.......$$$$$$$$$$$$$$$$$$$$..$$$$...$$....$$..$$$$$$$$$$$$$$$$$$$$$$",
"$$$$$$$$$$..#######..$$$$$$$$$$$$$$.$$....$$.....$....$...$..$$$$$$$$$$$$$$$$$$$",
"$$$$$$$$$..####@@@###.$$$$$$$$$$$.$..$....$...........$......$.$$$$$$$$$$$$$$$$$",
"$$$$$$$$..####@...@@@..$$$$$$$..$....$....................$....$.$$$$$$$$$$$$$$$",
"$$$$$$$$..####....................................................$$$$$$$$$$$$$$",
"$$$$$$$$..####......##...#.#####.#####..####.###..#.#####..####...$$.$$$$$$$$$$$",
"$$$$$$$$$..####.....##...#.#@....#@..#..#....##@#.#.#@.....#.......$..$.$$$$$$$$",
"$$$$$$$$$$..####....##...#..###..#####.###...##.@##..###..####..............$$$$",
"$$$$$$$$$$$..#####..##..#@....@#.#.....#@....##..##....@#.#@............$$.$$$$$",
"$$$$$$$$$$$$..#####..###@..#####.#.....#####.##..##.#####.#####........$$.$$$$$$",
"$$$$$$$$$......######..................................................$.$$$$$$$",
"$$$$$$$..###....@#++++++...+++.....+++++.....+++.....++++++....+++++++...$$$$$$$",
"$$$$$$..###......@+++++++..++++....+++++++...++++....+++.++++..+++.......$$$$$$$",
"$$$$$..#####....###+++#+++..++++....++..+++...++++....+++..+++..+++.......$$$$$$",
"$$$$$..############+++#+++..++.++...+++.+++...++.++...+++...++..+++.......$$$$$$",
"$$$$$..@############+++++...++++++...+++++....++++++...+++..++...+++++.....$$$$$",
"$$$$$$..@@##########+++......++.+++..+++.+++..+++.+++..+++.+++...+++.......$$$$$",
"$$$$$$$...@@@@@@@@@@@+++.....+++.+++..+++.+++..+++.+++..+++++.....+++......$$$$$",
"$$$$$$$$$............+++.....+++..+++.+++.+++..+++..+++.++++......++++++...$$$$$",
"$$$$$$$$$$$$$$$$$$$.......................................................$$$$$$",
"$$$$$$$$$$$$$$$$$$$$$$$$$$$$$$$$$$$$$$$$$$$$$$$$$$$$$$$$$$$$$$$$$$$$$$$$$$$$$$$$",
"$$$$$$$$$$$$$$$$$$$$$$$$$$$$$$$$$$$$$$$$$$$$$$$$$$$$$$$$$$$$$$$$$$$$$$$$$$$$$$$$",
"$$$$$$$$$$$$$$$$$$$$$$$$$$$$$$$$$$$$$$$$$$$$$$$$$$$$$$$$$$$$$$$$$$$$$$$$$$$$$$$$"};
